<?xml version="1.0" encoding="UTF-8" standalone="no"?>
<svg
   xmlns:dc="http://purl.org/dc/elements/1.1/"
   xmlns:cc="http://creativecommons.org/ns#"
   xmlns:rdf="http://www.w3.org/1999/02/22-rdf-syntax-ns#"
   xmlns:svg="http://www.w3.org/2000/svg"
   xmlns="http://www.w3.org/2000/svg"
   id="svg4285"
   version="1.1"
   viewBox="0 0 600 600"
   height="600"
   width="600">
  <metadata
     id="metadata4291">
    <rdf:RDF>
      <cc:Work
         rdf:about="">
        <dc:format>image/svg+xml</dc:format>
        <dc:type
           rdf:resource="http://purl.org/dc/dcmitype/StillImage" />
        <dc:title></dc:title>
      </cc:Work>
    </rdf:RDF>
  </metadata>
  <defs
     id="defs4289" />
  <g
     id="g4283"
     transform="translate(300,300)">
    <path
       id="path4281"
       fill="#ff6900"
       d="M196.5,-56.7C221.7,14,186.7,111.3,120.1,158C53.5,204.7,-44.7,200.6,-110.8,152.6C-177,104.5,-211.2,12.4,-187.4,-56.2C-163.6,-124.8,-81.8,-169.9,1.9,-170.5C85.6,-171.1,171.2,-127.3,196.5,-56.7Z" />
  </g>
  <g
     id="g4320"
     transform="matrix(1.3333333,0,0,-1.3333333,451.95021,1137.9911)">
    <g
       id="g4322"
       transform="scale(0.1)">
      <path
         d="m -1074.3222,7120.7986 c -503.5093,0 -911.8037,-408.2038 -911.8037,-911.7886 0,-402.8588 261.2595,-744.6417 623.547,-865.2109 45.5691,-8.4389 62.2989,19.7828 62.2989,43.8658 0,21.7427 -0.8456,93.5691 -1.2382,169.7591 -253.6646,-55.157 -307.1909,107.581 -307.1909,107.581 -41.4772,105.3916 -101.2394,133.4155 -101.2394,133.4155 -82.7279,56.5914 6.2359,55.4288 6.2359,55.4288 91.5609,-6.4172 139.7723,-93.9617 139.7723,-93.9617 81.3237,-139.3947 213.3048,-99.0953 265.3363,-75.7974 8.1837,58.9167 31.8137,99.1708 57.8899,121.9251 -202.5241,23.0564 -415.4212,101.2394 -415.4212,450.6172 0,99.5483 35.6187,180.8871 93.9465,244.7411 -9.4671,22.9808 -40.677,115.7043 8.833,241.2985 0,0 76.5674,24.5059 250.8109,-93.4633 72.7323,20.2026 150.7342,30.3341 228.2227,30.6813 77.48855,-0.3472 155.55084,-10.4787 228.41903,-30.6813 174.03207,117.9692 250.49385,93.4633 250.49385,93.4633 49.6307,-125.5942 18.40579,-218.3177 8.93866,-241.2985 58.46367,-63.854 93.84083,-145.1928 93.84083,-244.7411 0,-350.2082 -213.30481,-427.3193 -416.34223,-449.8924 32.70463,-28.2957 61.84587,-83.7848 61.84587,-168.8531 0,-121.9855 -1.05694,-220.1749 -1.05694,-250.2221 0,-24.2642 16.41271,-52.6943 62.631,-43.742 362.09122,120.7021 623.01856,462.3642 623.01856,865.0871 0,503.5848 -408.23404,911.7886 -911.78863,911.7886"
         style="fill:#ffffff;fill-opacity:1;fill-rule:evenodd;stroke:none;stroke-width:1.5099088"
         id="path4418" />
      <path
         d="m -1640.7796,5811.6624 c -2.0081,-4.5448 -9.1349,-5.8886 -15.6275,-2.7782 -6.6134,2.9745 -10.3278,9.15 -8.1837,13.6948 1.9629,4.6657 9.1047,5.9491 15.703,2.8538 6.6285,-2.9896 10.4033,-9.2256 8.1082,-13.7704 v 0"
         style="fill:#ffffff;fill-opacity:1;fill-rule:nonzero;stroke:none;stroke-width:1.5099088"
         id="path4420" />
      <path
         d="m -1603.8472,5770.4721 c -4.3485,-4.0315 -12.8493,-2.1592 -18.6172,4.2126 -5.9641,6.3568 -7.0814,14.8575 -2.6725,18.9494 4.4844,4.0314 12.7285,2.1441 18.7078,-4.2127 5.9641,-6.4322 7.1267,-14.8726 2.5819,-18.9493 v 0"
         style="fill:#ffffff;fill-opacity:1;fill-rule:nonzero;stroke:none;stroke-width:1.5099088"
         id="path4422" />
      <path
         d="m -1567.8963,5717.9575 c -5.5866,-3.8805 -14.7216,-0.2416 -20.3686,7.8666 -5.5867,8.1082 -5.5867,17.832 0.1208,21.7276 5.6621,3.8955 14.6612,0.3926 20.3837,-7.6553 5.5716,-8.229 5.5716,-17.9679 -0.1359,-21.9389 v 0"
         style="fill:#ffffff;fill-opacity:1;fill-rule:nonzero;stroke:none;stroke-width:1.5099088"
         id="path4424" />
      <path
         d="m -1518.643,5667.2245 c -4.9978,-5.5111 -15.6427,-4.0314 -23.4338,3.4879 -7.9723,7.3533 -10.1919,17.7867 -5.179,23.2979 5.0582,5.5263 15.7634,3.9711 23.615,-3.4879 7.9119,-7.3381 10.3277,-17.8471 4.9978,-23.2979 v 0"
         style="fill:#ffffff;fill-opacity:1;fill-rule:nonzero;stroke:none;stroke-width:1.5099088"
         id="path4426" />
      <path
         d="m -1450.6972,5637.7662 c -2.2044,-7.1419 -12.4567,-10.3882 -22.7845,-7.3532 -10.3127,3.1255 -17.0619,11.4904 -14.9783,18.7077 2.1441,7.1872 12.4417,10.5694 22.8449,7.3231 10.2976,-3.1104 17.062,-11.4149 14.9179,-18.6776 v 0"
         style="fill:#ffffff;fill-opacity:1;fill-rule:nonzero;stroke:none;stroke-width:1.5099088"
         id="path4428" />
      <path
         d="m -1376.0775,5632.3003 c 0.2567,-7.5193 -8.5007,-13.7552 -19.3419,-13.876 -10.9015,-0.2567 -19.7194,5.8282 -19.8402,13.2268 0,7.5948 8.5612,13.7703 19.4627,13.9515 10.8412,0.2114 19.7194,-5.8282 19.7194,-13.3023 v 0"
         style="fill:#ffffff;fill-opacity:1;fill-rule:nonzero;stroke:none;stroke-width:1.5099088"
         id="path4430" />
      <path
         d="m -1306.6368,5644.1229 c 1.2986,-7.3381 -6.2359,-14.8726 -17.0015,-16.8657 -10.5845,-1.9477 -20.3838,2.582 -21.7276,9.8597 -1.3136,7.5194 6.3567,15.0538 16.9261,17.0016 10.7807,1.8723 20.429,-2.5366 21.803,-9.9956 v 0"
         style="fill:#ffffff;fill-opacity:1;fill-rule:nonzero;stroke:none;stroke-width:1.5099088"
         id="path4432" />
    </g>
  </g>
</svg>
